<svg xmlns="http://www.w3.org/2000/svg" version="1.1" width="6.3in" height="6in" viewBox = " 0 0 567 540" >
<!-- Front--> 
<g transform="translate(22.5, 22.5) " > 
<polygon style="stroke:#000000; fill:none; stroke-width:0.9" points="10.62, 0 43.0423236, 0 43.0423236, 10.62 58.634823600000004, 10.62 58.634823600000004, 15.749999999999998 52.4248236, 15.749999999999998 52.4248236, 24.93 58.634823600000004, 24.93 58.634823600000004, 34.11 69.0748236, 34.11 69.0748236, 24.93 75.28482360000001, 24.93 75.28482360000001, 15.749999999999998 69.0748236, 15.749999999999998 69.0748236, 10.62 83.25, 10.62 83.25, 0 111.6673236, 0 111.6673236, 10.62 127.2598236, 10.62 127.2598236, 15.749999999999998 121.0498236, 15.749999999999998 121.0498236, 24.93 127.2598236, 24.93 127.2598236, 34.11 137.6998236, 34.11 137.6998236, 24.93 143.9098236, 24.93 143.9098236, 15.749999999999998 137.6998236, 15.749999999999998 137.6998236, 10.62 151.875, 10.62 151.875, 0 184.2973236, 0 184.2973236, 41.625 194.9173236, 41.625 194.9173236, 55.8675 181.77732360000002, 55.8675 181.77732360000002, 69.0075 194.9173236, 69.0075 194.9173236, 84.6673236 184.2973236, 84.6673236 184.2973236, 110.25 194.9173236, 110.25 194.9173236, 138.6673236 184.2973236, 138.6673236 184.2973236, 164.25 194.9173236, 164.25 194.9173236, 178.4925 181.77732360000002, 178.4925 181.77732360000002, 191.6325 194.9173236, 191.6325 194.9173236, 207.2923236 184.2973236, 207.2923236 184.2973236, 248.9173236 151.875, 248.9173236 151.875, 238.2973236 137.6998236, 238.2973236 137.6998236, 233.1673236 143.9098236, 233.1673236 143.9098236, 223.9873236 137.6998236, 223.9873236 137.6998236, 214.8073236 127.2598236, 214.8073236 127.2598236, 223.9873236 121.0498236, 223.9873236 121.0498236, 233.1673236 127.2598236, 233.1673236 127.2598236, 238.2973236 111.6673236, 238.2973236 111.6673236, 248.9173236 83.25, 248.9173236 83.25, 238.2973236 69.0748236, 238.2973236 69.0748236, 233.1673236 75.28482360000001, 233.1673236 75.28482360000001, 223.9873236 69.0748236, 223.9873236 69.0748236, 214.8073236 58.634823600000004, 214.8073236 58.634823600000004, 223.9873236 52.4248236, 223.9873236 52.4248236, 233.1673236 58.634823600000004, 233.1673236 58.634823600000004, 238.2973236 43.0423236, 238.2973236 43.0423236, 248.9173236 10.62, 248.9173236 10.62, 207.2923236 0, 207.2923236 0, 191.6325 13.139999999999999, 191.6325 13.139999999999999, 178.4925 0, 178.4925 0, 164.25 10.62, 164.25 10.62, 138.6673236 0, 138.6673236 0, 110.25 10.62, 110.25 10.62, 84.6673236 0, 84.6673236 0, 69.0075 13.139999999999999, 69.0075 13.139999999999999, 55.8675 0, 55.8675 0, 41.625 10.62, 41.625 "/> 
</g>
<!-- Back--> 
<g transform="translate(217.4173236, 22.5) " > 
<polygon style="stroke:#000000; fill:none; stroke-width:0.9" points="10.62, 0 43.0423236, 0 43.0423236, 10.62 58.634823600000004, 10.62 58.634823600000004, 15.749999999999998 52.4248236, 15.749999999999998 52.4248236, 24.93 58.634823600000004, 24.93 58.634823600000004, 34.11 69.0748236, 34.11 69.0748236, 24.93 75.28482360000001, 24.93 75.28482360000001, 15.749999999999998 69.0748236, 15.749999999999998 69.0748236, 10.62 83.25, 10.62 83.25, 0 111.6673236, 0 111.6673236, 10.62 127.2598236, 10.62 127.2598236, 15.749999999999998 121.0498236, 15.749999999999998 121.0498236, 24.93 127.2598236, 24.93 127.2598236, 34.11 137.6998236, 34.11 137.6998236, 24.93 143.9098236, 24.93 143.9098236, 15.749999999999998 137.6998236, 15.749999999999998 137.6998236, 10.62 151.875, 10.62 151.875, 0 184.2973236, 0 184.2973236, 41.625 194.9173236, 41.625 194.9173236, 55.8675 181.77732360000002, 55.8675 181.77732360000002, 69.0075 194.9173236, 69.0075 194.9173236, 84.6673236 184.2973236, 84.6673236 184.2973236, 110.25 194.9173236, 110.25 194.9173236, 138.6673236 184.2973236, 138.6673236 184.2973236, 164.25 194.9173236, 164.25 194.9173236, 178.4925 181.77732360000002, 178.4925 181.77732360000002, 191.6325 194.9173236, 191.6325 194.9173236, 207.2923236 184.2973236, 207.2923236 184.2973236, 248.9173236 151.875, 248.9173236 151.875, 238.2973236 137.6998236, 238.2973236 137.6998236, 233.1673236 143.9098236, 233.1673236 143.9098236, 223.9873236 137.6998236, 223.9873236 137.6998236, 214.8073236 127.2598236, 214.8073236 127.2598236, 223.9873236 121.0498236, 223.9873236 121.0498236, 233.1673236 127.2598236, 233.1673236 127.2598236, 238.2973236 111.6673236, 238.2973236 111.6673236, 248.9173236 83.25, 248.9173236 83.25, 238.2973236 69.0748236, 238.2973236 69.0748236, 233.1673236 75.28482360000001, 233.1673236 75.28482360000001, 223.9873236 69.0748236, 223.9873236 69.0748236, 214.8073236 58.634823600000004, 214.8073236 58.634823600000004, 223.9873236 52.4248236, 223.9873236 52.4248236, 233.1673236 58.634823600000004, 233.1673236 58.634823600000004, 238.2973236 43.0423236, 238.2973236 43.0423236, 248.9173236 10.62, 248.9173236 10.62, 207.2923236 0, 207.2923236 0, 191.6325 13.139999999999999, 191.6325 13.139999999999999, 178.4925 0, 178.4925 0, 164.25 10.62, 164.25 10.62, 138.6673236 0, 138.6673236 0, 110.25 10.62, 110.25 10.62, 84.6673236 0, 84.6673236 0, 69.0075 13.139999999999999, 69.0075 13.139999999999999, 55.8675 0, 55.8675 0, 41.625 10.62, 41.625 "/> 
</g>
<!-- Left--> 
<g transform="translate(412.3346472, 22.5) " > 
<polygon style="stroke:#000000; fill:none; stroke-width:0.9" points="0, 10.62 28.4173236, 10.62 28.4173236, 0 54, 0 54, 10.62 63.697323600000004, 10.62 63.697323600000004, 15.749999999999998 57.4873236, 15.749999999999998 57.4873236, 24.93 63.697323600000004, 24.93 63.697323600000004, 34.11 74.1373236, 34.11 74.1373236, 24.93 80.34732360000001, 24.93 80.34732360000001, 15.749999999999998 74.1373236, 15.749999999999998 74.1373236, 10.62 82.4173236, 10.62 82.4173236, 0 108, 0 108, 10.62 136.4173236, 10.62 136.4173236, 43.0423236 125.7973236, 43.0423236 125.7973236, 58.634823600000004 120.6673236, 58.634823600000004 120.6673236, 52.4248236 111.4873236, 52.4248236 111.4873236, 58.634823600000004 102.30732359999999, 58.634823600000004 102.30732359999999, 69.0748236 111.4873236, 69.0748236 111.4873236, 75.28482360000001 120.6673236, 75.28482360000001 120.6673236, 69.0748236 125.7973236, 69.0748236 125.7973236, 83.25 136.4173236, 83.25 136.4173236, 111.6673236 125.7973236, 111.6673236 125.7973236, 137.25 136.4173236, 137.25 136.4173236, 165.6673236 125.7973236, 165.6673236 125.7973236, 181.2598236 120.6673236, 181.2598236 120.6673236, 175.0498236 111.4873236, 175.0498236 111.4873236, 181.2598236 102.30732359999999, 181.2598236 102.30732359999999, 191.6998236 111.4873236, 191.6998236 111.4873236, 197.9098236 120.6673236, 197.9098236 120.6673236, 191.6998236 125.7973236, 191.6998236 125.7973236, 205.875 136.4173236, 205.875 136.4173236, 238.2973236 108, 238.2973236 108, 248.9173236 82.4173236, 248.9173236 82.4173236, 238.2973236 74.1373236, 238.2973236 74.1373236, 233.1673236 80.34732360000001, 233.1673236 80.34732360000001, 223.9873236 74.1373236, 223.9873236 74.1373236, 214.8073236 63.697323600000004, 214.8073236 63.697323600000004, 223.9873236 57.4873236, 223.9873236 57.4873236, 233.1673236 63.697323600000004, 233.1673236 63.697323600000004, 238.2973236 54, 238.2973236 54, 248.9173236 28.4173236, 248.9173236 28.4173236, 238.2973236 0, 238.2973236 0, 205.875 10.62, 205.875 10.62, 191.6998236 15.749999999999998, 191.6998236 15.749999999999998, 197.9098236 24.93, 197.9098236 24.93, 191.6998236 34.11, 191.6998236 34.11, 181.2598236 24.93, 181.2598236 24.93, 175.0498236 15.749999999999998, 175.0498236 15.749999999999998, 181.2598236 10.62, 181.2598236 10.62, 165.6673236 0, 165.6673236 0, 137.25 10.62, 137.25 10.62, 111.6673236 0, 111.6673236 0, 83.25 10.62, 83.25 10.62, 69.0748236 15.749999999999998, 69.0748236 15.749999999999998, 75.28482360000001 24.93, 75.28482360000001 24.93, 69.0748236 34.11, 69.0748236 34.11, 58.634823600000004 24.93, 58.634823600000004 24.93, 52.4248236 15.749999999999998, 52.4248236 15.749999999999998, 58.634823600000004 10.62, 58.634823600000004 10.62, 43.0423236 0, 43.0423236 "/> 
</g>
<!-- Right--> 
<g transform="translate(412.3346472, 271.41732360000003) " > 
<polygon style="stroke:#000000; fill:none; stroke-width:0.9" points="0, 10.62 28.4173236, 10.62 28.4173236, 0 54, 0 54, 10.62 63.697323600000004, 10.62 63.697323600000004, 15.749999999999998 57.4873236, 15.749999999999998 57.4873236, 24.93 63.697323600000004, 24.93 63.697323600000004, 34.11 74.1373236, 34.11 74.1373236, 24.93 80.34732360000001, 24.93 80.34732360000001, 15.749999999999998 74.1373236, 15.749999999999998 74.1373236, 10.62 82.4173236, 10.62 82.4173236, 0 108, 0 108, 10.62 136.4173236, 10.62 136.4173236, 43.0423236 125.7973236, 43.0423236 125.7973236, 58.634823600000004 120.6673236, 58.634823600000004 120.6673236, 52.4248236 111.4873236, 52.4248236 111.4873236, 58.634823600000004 102.30732359999999, 58.634823600000004 102.30732359999999, 69.0748236 111.4873236, 69.0748236 111.4873236, 75.28482360000001 120.6673236, 75.28482360000001 120.6673236, 69.0748236 125.7973236, 69.0748236 125.7973236, 83.25 136.4173236, 83.25 136.4173236, 111.6673236 125.7973236, 111.6673236 125.7973236, 137.25 136.4173236, 137.25 136.4173236, 165.6673236 125.7973236, 165.6673236 125.7973236, 181.2598236 120.6673236, 181.2598236 120.6673236, 175.0498236 111.4873236, 175.0498236 111.4873236, 181.2598236 102.30732359999999, 181.2598236 102.30732359999999, 191.6998236 111.4873236, 191.6998236 111.4873236, 197.9098236 120.6673236, 197.9098236 120.6673236, 191.6998236 125.7973236, 191.6998236 125.7973236, 205.875 136.4173236, 205.875 136.4173236, 238.2973236 108, 238.2973236 108, 248.9173236 82.4173236, 248.9173236 82.4173236, 238.2973236 74.1373236, 238.2973236 74.1373236, 233.1673236 80.34732360000001, 233.1673236 80.34732360000001, 223.9873236 74.1373236, 223.9873236 74.1373236, 214.8073236 63.697323600000004, 214.8073236 63.697323600000004, 223.9873236 57.4873236, 223.9873236 57.4873236, 233.1673236 63.697323600000004, 233.1673236 63.697323600000004, 238.2973236 54, 238.2973236 54, 248.9173236 28.4173236, 248.9173236 28.4173236, 238.2973236 0, 238.2973236 0, 205.875 10.62, 205.875 10.62, 191.6998236 15.749999999999998, 191.6998236 15.749999999999998, 197.9098236 24.93, 197.9098236 24.93, 191.6998236 34.11, 191.6998236 34.11, 181.2598236 24.93, 181.2598236 24.93, 175.0498236 15.749999999999998, 175.0498236 15.749999999999998, 181.2598236 10.62, 181.2598236 10.62, 165.6673236 0, 165.6673236 0, 137.25 10.62, 137.25 10.62, 111.6673236 0, 111.6673236 0, 83.25 10.62, 83.25 10.62, 69.0748236 15.749999999999998, 69.0748236 15.749999999999998, 75.28482360000001 24.93, 75.28482360000001 24.93, 69.0748236 34.11, 69.0748236 34.11, 58.634823600000004 24.93, 58.634823600000004 24.93, 52.4248236 15.749999999999998, 52.4248236 15.749999999999998, 58.634823600000004 10.62, 58.634823600000004 10.62, 43.0423236 0, 43.0423236 "/> 
</g>
<!-- Top--> 
<g transform="translate(22.5, 271.41732360000003) " > 
<polygon style="stroke:#000000; fill:none; stroke-width:0.9" points="0, 10.62 41.625, 10.62 41.625, 0 55.8675, 0 55.8675, 13.139999999999999 69.0075, 13.139999999999999 69.0075, 0 84.6673236, 0 84.6673236, 10.62 110.25, 10.62 110.25, 0 124.4925, 0 124.4925, 13.139999999999999 137.6325, 13.139999999999999 137.6325, 0 153.2923236, 0 153.2923236, 10.62 194.9173236, 10.62 194.9173236, 27 184.2973236, 27 184.2973236, 55.4173236 194.9173236, 55.4173236 194.9173236, 60.93 181.77732360000002, 60.93 181.77732360000002, 74.07 194.9173236, 74.07 194.9173236, 81 184.2973236, 81 184.2973236, 109.4173236 194.9173236, 109.4173236 194.9173236, 125.7973236 153.2923236, 125.7973236 153.2923236, 136.4173236 137.6325, 136.4173236 137.6325, 123.2773236 124.4925, 123.2773236 124.4925, 136.4173236 110.25, 136.4173236 110.25, 125.7973236 84.6673236, 125.7973236 84.6673236, 136.4173236 69.0075, 136.4173236 69.0075, 123.2773236 55.8675, 123.2773236 55.8675, 136.4173236 41.625, 136.4173236 41.625, 125.7973236 0, 125.7973236 0, 109.4173236 10.62, 109.4173236 10.62, 81 0, 81 0, 74.07 13.139999999999999, 74.07 13.139999999999999, 60.93 0, 60.93 0, 55.4173236 10.62, 55.4173236 10.62, 27 0, 27 "/> 
</g>
<!-- Bottom--> 
<g transform="translate(217.4173236, 271.41732360000003) " > 
<polygon style="stroke:#000000; fill:none; stroke-width:0.9" points="0, 10.62 41.625, 10.62 41.625, 0 55.8675, 0 55.8675, 13.139999999999999 69.0075, 13.139999999999999 69.0075, 0 84.6673236, 0 84.6673236, 10.62 110.25, 10.62 110.25, 0 124.4925, 0 124.4925, 13.139999999999999 137.6325, 13.139999999999999 137.6325, 0 153.2923236, 0 153.2923236, 10.62 194.9173236, 10.62 194.9173236, 27 184.2973236, 27 184.2973236, 55.4173236 194.9173236, 55.4173236 194.9173236, 60.93 181.77732360000002, 60.93 181.77732360000002, 74.07 194.9173236, 74.07 194.9173236, 81 184.2973236, 81 184.2973236, 109.4173236 194.9173236, 109.4173236 194.9173236, 125.7973236 153.2923236, 125.7973236 153.2923236, 136.4173236 137.6325, 136.4173236 137.6325, 123.2773236 124.4925, 123.2773236 124.4925, 136.4173236 110.25, 136.4173236 110.25, 125.7973236 84.6673236, 125.7973236 84.6673236, 136.4173236 69.0075, 136.4173236 69.0075, 123.2773236 55.8675, 123.2773236 55.8675, 136.4173236 41.625, 136.4173236 41.625, 125.7973236 0, 125.7973236 0, 109.4173236 10.62, 109.4173236 10.62, 81 0, 81 0, 74.07 13.139999999999999, 74.07 13.139999999999999, 60.93 0, 60.93 0, 55.4173236 10.62, 55.4173236 10.62, 27 0, 27 "/> 
</g></svg>