<svg xmlns="http://www.w3.org/2000/svg" version="1.1" width="12.5in" height="8.5in" viewBox = " 0 0 1125 765" >
<!-- Front--> 
<g transform="translate(22.5, 22.5) " > 
<polygon style="stroke:#000000; fill:none; stroke-width:0.9" points="10.62, 0 44.16732360000001, 0 44.16732360000001, 10.62 60.32232360000002, 10.62 60.32232360000002, 15.749999999999998 54.11232360000002, 15.749999999999998 54.11232360000002, 24.93 60.32232360000002, 24.93 60.32232360000002, 34.11 70.76232360000002, 34.11 70.76232360000002, 24.93 76.97232360000001, 24.93 76.97232360000001, 15.749999999999998 70.76232360000002, 15.749999999999998 70.76232360000002, 10.62 85.50000000000001, 10.62 85.50000000000001, 0 113.91732360000002, 0 113.91732360000002, 10.62 139.5, 10.62 139.5, 0 167.9173236, 0 167.9173236, 10.62 193.5, 10.62 193.5, 0 221.9173236, 0 221.9173236, 10.62 247.5, 10.62 247.5, 0 275.9173236, 0 275.9173236, 10.62 292.07232359999995, 10.62 292.07232359999995, 15.749999999999998 285.86232359999997, 15.749999999999998 285.86232359999997, 24.93 292.07232359999995, 24.93 292.07232359999995, 34.11 302.5123236, 34.11 302.5123236, 24.93 308.7223236, 24.93 308.7223236, 15.749999999999998 302.5123236, 15.749999999999998 302.5123236, 10.62 317.25, 10.62 317.25, 0 350.7973236, 0 350.7973236, 42.75000000000001 361.41732360000003, 42.75000000000001 361.41732360000003, 57.555000000000014 348.27732360000005, 57.555000000000014 348.27732360000005, 70.69500000000001 361.41732360000003, 70.69500000000001 361.41732360000003, 86.91732360000002 350.7973236, 86.91732360000002 350.7973236, 112.50000000000001 361.41732360000003, 112.50000000000001 361.41732360000003, 140.9173236 350.7973236, 140.9173236 350.7973236, 166.5 361.41732360000003, 166.5 361.41732360000003, 194.9173236 350.7973236, 194.9173236 350.7973236, 220.5 361.41732360000003, 220.5 361.41732360000003, 248.9173236 350.7973236, 248.9173236 350.7973236, 274.5 361.41732360000003, 274.5 361.41732360000003, 289.305 348.27732360000005, 289.305 348.27732360000005, 302.445 361.41732360000003, 302.445 361.41732360000003, 318.6673236 350.7973236, 318.6673236 350.79732359999997, 361.41732360000003 317.25, 361.41732360000003 317.25, 350.7973236 302.5123236, 350.7973236 302.5123236, 345.66732360000003 308.7223236, 345.66732360000003 308.7223236, 336.4873236 302.5123236, 336.4873236 302.5123236, 327.3073236 292.07232359999995, 327.3073236 292.07232359999995, 336.4873236 285.86232359999997, 336.4873236 285.86232359999997, 345.66732360000003 292.07232359999995, 345.66732360000003 292.07232359999995, 350.7973236 275.9173236, 350.7973236 275.9173236, 361.41732360000003 247.5, 361.41732360000003 247.5, 350.7973236 221.9173236, 350.7973236 221.9173236, 361.41732360000003 193.5, 361.41732360000003 193.5, 350.7973236 167.9173236, 350.7973236 167.9173236, 361.41732360000003 139.5, 361.41732360000003 139.5, 350.7973236 113.91732360000002, 350.7973236 113.91732360000002, 361.41732360000003 85.50000000000001, 361.41732360000003 85.50000000000001, 350.7973236 70.76232360000002, 350.7973236 70.76232360000002, 345.66732360000003 76.97232360000001, 345.66732360000003 76.97232360000001, 336.4873236 70.76232360000002, 336.4873236 70.76232360000002, 327.3073236 60.32232360000002, 327.3073236 60.32232360000002, 336.4873236 54.11232360000002, 336.4873236 54.11232360000002, 345.66732360000003 60.32232360000002, 345.66732360000003 60.32232360000002, 350.7973236 44.16732360000001, 350.7973236 44.16732360000001, 361.41732360000003 10.62, 361.4173236 10.62, 318.6673236 0, 318.6673236 0, 302.445 13.139999999999999, 302.445 13.139999999999999, 289.305 0, 289.305 0, 274.5 10.62, 274.5 10.62, 248.9173236 0, 248.9173236 0, 220.5 10.62, 220.5 10.62, 194.9173236 0, 194.9173236 0, 166.5 10.62, 166.5 10.62, 140.9173236 0, 140.9173236 0, 112.50000000000001 10.62, 112.50000000000001 10.62, 86.91732360000002 0, 86.91732360000002 0, 70.69500000000001 13.139999999999999, 70.69500000000001 13.139999999999999, 57.555000000000014 0, 57.555000000000014 0, 42.75000000000001 10.62, 42.75000000000001 "/> 
</g>
<!-- Back--> 
<g transform="translate(383.91732360000003, 22.5) " > 
<polygon style="stroke:#000000; fill:none; stroke-width:0.9" points="10.62, 0 44.16732360000001, 0 44.16732360000001, 10.62 60.32232360000002, 10.62 60.32232360000002, 15.749999999999998 54.11232360000002, 15.749999999999998 54.11232360000002, 24.93 60.32232360000002, 24.93 60.32232360000002, 34.11 70.76232360000002, 34.11 70.76232360000002, 24.93 76.97232360000001, 24.93 76.97232360000001, 15.749999999999998 70.76232360000002, 15.749999999999998 70.76232360000002, 10.62 85.50000000000001, 10.62 85.50000000000001, 0 113.91732360000002, 0 113.91732360000002, 10.62 139.5, 10.62 139.5, 0 167.9173236, 0 167.9173236, 10.62 193.5, 10.62 193.5, 0 221.9173236, 0 221.9173236, 10.62 247.5, 10.62 247.5, 0 275.9173236, 0 275.9173236, 10.62 292.07232359999995, 10.62 292.07232359999995, 15.749999999999998 285.86232359999997, 15.749999999999998 285.86232359999997, 24.93 292.07232359999995, 24.93 292.07232359999995, 34.11 302.5123236, 34.11 302.5123236, 24.93 308.7223236, 24.93 308.7223236, 15.749999999999998 302.5123236, 15.749999999999998 302.5123236, 10.62 317.25, 10.62 317.25, 0 350.7973236, 0 350.7973236, 42.75000000000001 361.41732360000003, 42.75000000000001 361.41732360000003, 57.555000000000014 348.27732360000005, 57.555000000000014 348.27732360000005, 70.69500000000001 361.41732360000003, 70.69500000000001 361.41732360000003, 86.91732360000002 350.7973236, 86.91732360000002 350.7973236, 112.50000000000001 361.41732360000003, 112.50000000000001 361.41732360000003, 140.9173236 350.7973236, 140.9173236 350.7973236, 166.5 361.41732360000003, 166.5 361.41732360000003, 194.9173236 350.7973236, 194.9173236 350.7973236, 220.5 361.41732360000003, 220.5 361.41732360000003, 248.9173236 350.7973236, 248.9173236 350.7973236, 274.5 361.41732360000003, 274.5 361.41732360000003, 289.305 348.27732360000005, 289.305 348.27732360000005, 302.445 361.41732360000003, 302.445 361.41732360000003, 318.6673236 350.7973236, 318.6673236 350.79732359999997, 361.41732360000003 317.25, 361.41732360000003 317.25, 350.7973236 302.5123236, 350.7973236 302.5123236, 345.66732360000003 308.7223236, 345.66732360000003 308.7223236, 336.4873236 302.5123236, 336.4873236 302.5123236, 327.3073236 292.07232359999995, 327.3073236 292.07232359999995, 336.4873236 285.86232359999997, 336.4873236 285.86232359999997, 345.66732360000003 292.07232359999995, 345.66732360000003 292.07232359999995, 350.7973236 275.9173236, 350.7973236 275.9173236, 361.41732360000003 247.5, 361.41732360000003 247.5, 350.7973236 221.9173236, 350.7973236 221.9173236, 361.41732360000003 193.5, 361.41732360000003 193.5, 350.7973236 167.9173236, 350.7973236 167.9173236, 361.41732360000003 139.5, 361.41732360000003 139.5, 350.7973236 113.91732360000002, 350.7973236 113.91732360000002, 361.41732360000003 85.50000000000001, 361.41732360000003 85.50000000000001, 350.7973236 70.76232360000002, 350.7973236 70.76232360000002, 345.66732360000003 76.97232360000001, 345.66732360000003 76.97232360000001, 336.4873236 70.76232360000002, 336.4873236 70.76232360000002, 327.3073236 60.32232360000002, 327.3073236 60.32232360000002, 336.4873236 54.11232360000002, 336.4873236 54.11232360000002, 345.66732360000003 60.32232360000002, 345.66732360000003 60.32232360000002, 350.7973236 44.16732360000001, 350.7973236 44.16732360000001, 361.41732360000003 10.62, 361.4173236 10.62, 318.6673236 0, 318.6673236 0, 302.445 13.139999999999999, 302.445 13.139999999999999, 289.305 0, 289.305 0, 274.5 10.62, 274.5 10.62, 248.9173236 0, 248.9173236 0, 220.5 10.62, 220.5 10.62, 194.9173236 0, 194.9173236 0, 166.5 10.62, 166.5 10.62, 140.9173236 0, 140.9173236 0, 112.50000000000001 10.62, 112.50000000000001 10.62, 86.91732360000002 0, 86.91732360000002 0, 70.69500000000001 13.139999999999999, 70.69500000000001 13.139999999999999, 57.555000000000014 0, 57.555000000000014 0, 42.75000000000001 10.62, 42.75000000000001 "/> 
</g>
<!-- Left--> 
<g transform="translate(745.3346472000001, 22.5) " > 
<polygon style="stroke:#000000; fill:none; stroke-width:0.9" points="0, 10.62 42.75000000000001, 10.62 42.75000000000001, 0 57.555000000000014, 0 57.555000000000014, 13.139999999999999 70.69500000000001, 13.139999999999999 70.69500000000001, 0 86.91732360000002, 0 86.91732360000002, 10.62 112.50000000000001, 10.62 112.50000000000001, 0 140.9173236, 0 140.9173236, 10.62 166.5, 10.62 166.5, 0 194.9173236, 0 194.9173236, 10.62 220.5, 10.62 220.5, 0 248.9173236, 0 248.9173236, 10.62 274.5, 10.62 274.5, 0 289.305, 0 289.305, 13.139999999999999 302.445, 13.139999999999999 302.445, 0 318.6673236, 0 318.6673236, 10.62 361.41732360000003, 10.62 361.41732360000003, 44.16732360000001 350.7973236, 44.16732360000001 350.7973236, 60.32232360000002 345.66732360000003, 60.32232360000002 345.66732360000003, 54.11232360000002 336.4873236, 54.11232360000002 336.4873236, 60.32232360000002 327.3073236, 60.32232360000002 327.3073236, 70.76232360000002 336.4873236, 70.76232360000002 336.4873236, 76.97232360000001 345.66732360000003, 76.97232360000001 345.66732360000003, 70.76232360000002 350.7973236, 70.76232360000002 350.7973236, 85.50000000000001 361.41732360000003, 85.50000000000001 361.41732360000003, 113.91732360000002 350.7973236, 113.91732360000002 350.7973236, 139.5 361.41732360000003, 139.5 361.41732360000003, 167.9173236 350.7973236, 167.9173236 350.7973236, 193.5 361.41732360000003, 193.5 361.41732360000003, 221.9173236 350.7973236, 221.9173236 350.7973236, 247.5 361.41732360000003, 247.5 361.41732360000003, 275.9173236 350.7973236, 275.9173236 350.7973236, 292.07232359999995 345.66732360000003, 292.07232359999995 345.66732360000003, 285.86232359999997 336.4873236, 285.86232359999997 336.4873236, 292.07232359999995 327.3073236, 292.07232359999995 327.3073236, 302.5123236 336.4873236, 302.5123236 336.4873236, 308.7223236 345.66732360000003, 308.7223236 345.66732360000003, 302.5123236 350.7973236, 302.5123236 350.7973236, 317.25 361.41732360000003, 317.25 361.4173236, 350.7973236 318.6673236, 350.7973236 318.6673236, 361.41732360000003 302.445, 361.41732360000003 302.445, 348.27732360000005 289.305, 348.27732360000005 289.305, 361.41732360000003 274.5, 361.41732360000003 274.5, 350.7973236 248.9173236, 350.7973236 248.9173236, 361.41732360000003 220.5, 361.41732360000003 220.5, 350.7973236 194.9173236, 350.7973236 194.9173236, 361.41732360000003 166.5, 361.41732360000003 166.5, 350.7973236 140.9173236, 350.7973236 140.9173236, 361.41732360000003 112.50000000000001, 361.41732360000003 112.50000000000001, 350.7973236 86.91732360000002, 350.7973236 86.91732360000002, 361.41732360000003 70.69500000000001, 361.41732360000003 70.69500000000001, 348.27732360000005 57.555000000000014, 348.27732360000005 57.555000000000014, 361.41732360000003 42.75000000000001, 361.41732360000003 42.75000000000001, 350.7973236 0, 350.79732359999997 0, 317.25 10.62, 317.25 10.62, 302.5123236 15.749999999999998, 302.5123236 15.749999999999998, 308.7223236 24.93, 308.7223236 24.93, 302.5123236 34.11, 302.5123236 34.11, 292.07232359999995 24.93, 292.07232359999995 24.93, 285.86232359999997 15.749999999999998, 285.86232359999997 15.749999999999998, 292.07232359999995 10.62, 292.07232359999995 10.62, 275.9173236 0, 275.9173236 0, 247.5 10.62, 247.5 10.62, 221.9173236 0, 221.9173236 0, 193.5 10.62, 193.5 10.62, 167.9173236 0, 167.9173236 0, 139.5 10.62, 139.5 10.62, 113.91732360000002 0, 113.91732360000002 0, 85.50000000000001 10.62, 85.50000000000001 10.62, 70.76232360000002 15.749999999999998, 70.76232360000002 15.749999999999998, 76.97232360000001 24.93, 76.97232360000001 24.93, 70.76232360000002 34.11, 70.76232360000002 34.11, 60.32232360000002 24.93, 60.32232360000002 24.93, 54.11232360000002 15.749999999999998, 54.11232360000002 15.749999999999998, 60.32232360000002 10.62, 60.32232360000002 10.62, 44.16732360000001 0, 44.16732360000001 "/> 
</g>
<!-- Right--> 
<g transform="translate(745.3346472000001, 383.91732360000003) " > 
<polygon style="stroke:#000000; fill:none; stroke-width:0.9" points="0, 10.62 42.75000000000001, 10.62 42.75000000000001, 0 57.555000000000014, 0 57.555000000000014, 13.139999999999999 70.69500000000001, 13.139999999999999 70.69500000000001, 0 86.91732360000002, 0 86.91732360000002, 10.62 112.50000000000001, 10.62 112.50000000000001, 0 140.9173236, 0 140.9173236, 10.62 166.5, 10.62 166.5, 0 194.9173236, 0 194.9173236, 10.62 220.5, 10.62 220.5, 0 248.9173236, 0 248.9173236, 10.62 274.5, 10.62 274.5, 0 289.305, 0 289.305, 13.139999999999999 302.445, 13.139999999999999 302.445, 0 318.6673236, 0 318.6673236, 10.62 361.41732360000003, 10.62 361.41732360000003, 44.16732360000001 350.7973236, 44.16732360000001 350.7973236, 60.32232360000002 345.66732360000003, 60.32232360000002 345.66732360000003, 54.11232360000002 336.4873236, 54.11232360000002 336.4873236, 60.32232360000002 327.3073236, 60.32232360000002 327.3073236, 70.76232360000002 336.4873236, 70.76232360000002 336.4873236, 76.97232360000001 345.66732360000003, 76.97232360000001 345.66732360000003, 70.76232360000002 350.7973236, 70.76232360000002 350.7973236, 85.50000000000001 361.41732360000003, 85.50000000000001 361.41732360000003, 113.91732360000002 350.7973236, 113.91732360000002 350.7973236, 139.5 361.41732360000003, 139.5 361.41732360000003, 167.9173236 350.7973236, 167.9173236 350.7973236, 193.5 361.41732360000003, 193.5 361.41732360000003, 221.9173236 350.7973236, 221.9173236 350.7973236, 247.5 361.41732360000003, 247.5 361.41732360000003, 275.9173236 350.7973236, 275.9173236 350.7973236, 292.07232359999995 345.66732360000003, 292.07232359999995 345.66732360000003, 285.86232359999997 336.4873236, 285.86232359999997 336.4873236, 292.07232359999995 327.3073236, 292.07232359999995 327.3073236, 302.5123236 336.4873236, 302.5123236 336.4873236, 308.7223236 345.66732360000003, 308.7223236 345.66732360000003, 302.5123236 350.7973236, 302.5123236 350.7973236, 317.25 361.41732360000003, 317.25 361.4173236, 350.7973236 318.6673236, 350.7973236 318.6673236, 361.41732360000003 302.445, 361.41732360000003 302.445, 348.27732360000005 289.305, 348.27732360000005 289.305, 361.41732360000003 274.5, 361.41732360000003 274.5, 350.7973236 248.9173236, 350.7973236 248.9173236, 361.41732360000003 220.5, 361.41732360000003 220.5, 350.7973236 194.9173236, 350.7973236 194.9173236, 361.41732360000003 166.5, 361.41732360000003 166.5, 350.7973236 140.9173236, 350.7973236 140.9173236, 361.41732360000003 112.50000000000001, 361.41732360000003 112.50000000000001, 350.7973236 86.91732360000002, 350.7973236 86.91732360000002, 361.41732360000003 70.69500000000001, 361.41732360000003 70.69500000000001, 348.27732360000005 57.555000000000014, 348.27732360000005 57.555000000000014, 361.41732360000003 42.75000000000001, 361.41732360000003 42.75000000000001, 350.7973236 0, 350.79732359999997 0, 317.25 10.62, 317.25 10.62, 302.5123236 15.749999999999998, 302.5123236 15.749999999999998, 308.7223236 24.93, 308.7223236 24.93, 302.5123236 34.11, 302.5123236 34.11, 292.07232359999995 24.93, 292.07232359999995 24.93, 285.86232359999997 15.749999999999998, 285.86232359999997 15.749999999999998, 292.07232359999995 10.62, 292.07232359999995 10.62, 275.9173236 0, 275.9173236 0, 247.5 10.62, 247.5 10.62, 221.9173236 0, 221.9173236 0, 193.5 10.62, 193.5 10.62, 167.9173236 0, 167.9173236 0, 139.5 10.62, 139.5 10.62, 113.91732360000002 0, 113.91732360000002 0, 85.50000000000001 10.62, 85.50000000000001 10.62, 70.76232360000002 15.749999999999998, 70.76232360000002 15.749999999999998, 76.97232360000001 24.93, 76.97232360000001 24.93, 70.76232360000002 34.11, 70.76232360000002 34.11, 60.32232360000002 24.93, 60.32232360000002 24.93, 54.11232360000002 15.749999999999998, 54.11232360000002 15.749999999999998, 60.32232360000002 10.62, 60.32232360000002 10.62, 44.16732360000001 0, 44.16732360000001 "/> 
</g>
<!-- Top--> 
<g transform="translate(22.5, 383.91732360000003) " > 
<polygon style="stroke:#000000; fill:none; stroke-width:0.9" points="0, 10.62 42.75000000000001, 10.62 42.75000000000001, 0 57.555000000000014, 0 57.555000000000014, 13.139999999999999 70.69500000000001, 13.139999999999999 70.69500000000001, 0 86.91732360000002, 0 86.91732360000002, 10.62 112.50000000000001, 10.62 112.50000000000001, 0 140.9173236, 0 140.9173236, 10.62 166.5, 10.62 166.5, 0 194.9173236, 0 194.9173236, 10.62 220.5, 10.62 220.5, 0 248.9173236, 0 248.9173236, 10.62 274.5, 10.62 274.5, 0 289.305, 0 289.305, 13.139999999999999 302.445, 13.139999999999999 302.445, 0 318.6673236, 0 318.6673236, 10.62 361.41732360000003, 10.62 361.41732360000003, 44.16732360000001 350.7973236, 44.16732360000001 350.7973236, 60.32232360000002 345.66732360000003, 60.32232360000002 345.66732360000003, 54.11232360000002 336.4873236, 54.11232360000002 336.4873236, 60.32232360000002 327.3073236, 60.32232360000002 327.3073236, 70.76232360000002 336.4873236, 70.76232360000002 336.4873236, 76.97232360000001 345.66732360000003, 76.97232360000001 345.66732360000003, 70.76232360000002 350.7973236, 70.76232360000002 350.7973236, 85.50000000000001 361.41732360000003, 85.50000000000001 361.41732360000003, 113.91732360000002 350.7973236, 113.91732360000002 350.7973236, 139.5 361.41732360000003, 139.5 361.41732360000003, 167.9173236 350.7973236, 167.9173236 350.7973236, 193.5 361.41732360000003, 193.5 361.41732360000003, 221.9173236 350.7973236, 221.9173236 350.7973236, 247.5 361.41732360000003, 247.5 361.41732360000003, 275.9173236 350.7973236, 275.9173236 350.7973236, 292.07232359999995 345.66732360000003, 292.07232359999995 345.66732360000003, 285.86232359999997 336.4873236, 285.86232359999997 336.4873236, 292.07232359999995 327.3073236, 292.07232359999995 327.3073236, 302.5123236 336.4873236, 302.5123236 336.4873236, 308.7223236 345.66732360000003, 308.7223236 345.66732360000003, 302.5123236 350.7973236, 302.5123236 350.7973236, 317.25 361.41732360000003, 317.25 361.4173236, 350.7973236 318.6673236, 350.7973236 318.6673236, 361.41732360000003 302.445, 361.41732360000003 302.445, 348.27732360000005 289.305, 348.27732360000005 289.305, 361.41732360000003 274.5, 361.41732360000003 274.5, 350.7973236 248.9173236, 350.7973236 248.9173236, 361.41732360000003 220.5, 361.41732360000003 220.5, 350.7973236 194.9173236, 350.7973236 194.9173236, 361.41732360000003 166.5, 361.41732360000003 166.5, 350.7973236 140.9173236, 350.7973236 140.9173236, 361.41732360000003 112.50000000000001, 361.41732360000003 112.50000000000001, 350.7973236 86.91732360000002, 350.7973236 86.91732360000002, 361.41732360000003 70.69500000000001, 361.41732360000003 70.69500000000001, 348.27732360000005 57.555000000000014, 348.27732360000005 57.555000000000014, 361.41732360000003 42.75000000000001, 361.41732360000003 42.75000000000001, 350.7973236 0, 350.79732359999997 0, 317.25 10.62, 317.25 10.62, 302.5123236 15.749999999999998, 302.5123236 15.749999999999998, 308.7223236 24.93, 308.7223236 24.93, 302.5123236 34.11, 302.5123236 34.11, 292.07232359999995 24.93, 292.07232359999995 24.93, 285.86232359999997 15.749999999999998, 285.86232359999997 15.749999999999998, 292.07232359999995 10.62, 292.07232359999995 10.62, 275.9173236 0, 275.9173236 0, 247.5 10.62, 247.5 10.62, 221.9173236 0, 221.9173236 0, 193.5 10.62, 193.5 10.62, 167.9173236 0, 167.9173236 0, 139.5 10.62, 139.5 10.62, 113.91732360000002 0, 113.91732360000002 0, 85.50000000000001 10.62, 85.50000000000001 10.62, 70.76232360000002 15.749999999999998, 70.76232360000002 15.749999999999998, 76.97232360000001 24.93, 76.97232360000001 24.93, 70.76232360000002 34.11, 70.76232360000002 34.11, 60.32232360000002 24.93, 60.32232360000002 24.93, 54.11232360000002 15.749999999999998, 54.11232360000002 15.749999999999998, 60.32232360000002 10.62, 60.32232360000002 10.62, 44.16732360000001 0, 44.16732360000001 "/> 
</g>
<!-- Bottom--> 
<g transform="translate(383.91732360000003, 383.91732360000003) " > 
<polygon style="stroke:#000000; fill:none; stroke-width:0.9" points="0, 10.62 42.75000000000001, 10.62 42.75000000000001, 0 57.555000000000014, 0 57.555000000000014, 13.139999999999999 70.69500000000001, 13.139999999999999 70.69500000000001, 0 86.91732360000002, 0 86.91732360000002, 10.62 112.50000000000001, 10.62 112.50000000000001, 0 140.9173236, 0 140.9173236, 10.62 166.5, 10.62 166.5, 0 194.9173236, 0 194.9173236, 10.62 220.5, 10.62 220.5, 0 248.9173236, 0 248.9173236, 10.62 274.5, 10.62 274.5, 0 289.305, 0 289.305, 13.139999999999999 302.445, 13.139999999999999 302.445, 0 318.6673236, 0 318.6673236, 10.62 361.41732360000003, 10.62 361.41732360000003, 44.16732360000001 350.7973236, 44.16732360000001 350.7973236, 60.32232360000002 345.66732360000003, 60.32232360000002 345.66732360000003, 54.11232360000002 336.4873236, 54.11232360000002 336.4873236, 60.32232360000002 327.3073236, 60.32232360000002 327.3073236, 70.76232360000002 336.4873236, 70.76232360000002 336.4873236, 76.97232360000001 345.66732360000003, 76.97232360000001 345.66732360000003, 70.76232360000002 350.7973236, 70.76232360000002 350.7973236, 85.50000000000001 361.41732360000003, 85.50000000000001 361.41732360000003, 113.91732360000002 350.7973236, 113.91732360000002 350.7973236, 139.5 361.41732360000003, 139.5 361.41732360000003, 167.9173236 350.7973236, 167.9173236 350.7973236, 193.5 361.41732360000003, 193.5 361.41732360000003, 221.9173236 350.7973236, 221.9173236 350.7973236, 247.5 361.41732360000003, 247.5 361.41732360000003, 275.9173236 350.7973236, 275.9173236 350.7973236, 292.07232359999995 345.66732360000003, 292.07232359999995 345.66732360000003, 285.86232359999997 336.4873236, 285.86232359999997 336.4873236, 292.07232359999995 327.3073236, 292.07232359999995 327.3073236, 302.5123236 336.4873236, 302.5123236 336.4873236, 308.7223236 345.66732360000003, 308.7223236 345.66732360000003, 302.5123236 350.7973236, 302.5123236 350.7973236, 317.25 361.41732360000003, 317.25 361.4173236, 350.7973236 318.6673236, 350.7973236 318.6673236, 361.41732360000003 302.445, 361.41732360000003 302.445, 348.27732360000005 289.305, 348.27732360000005 289.305, 361.41732360000003 274.5, 361.41732360000003 274.5, 350.7973236 248.9173236, 350.7973236 248.9173236, 361.41732360000003 220.5, 361.41732360000003 220.5, 350.7973236 194.9173236, 350.7973236 194.9173236, 361.41732360000003 166.5, 361.41732360000003 166.5, 350.7973236 140.9173236, 350.7973236 140.9173236, 361.41732360000003 112.50000000000001, 361.41732360000003 112.50000000000001, 350.7973236 86.91732360000002, 350.7973236 86.91732360000002, 361.41732360000003 70.69500000000001, 361.41732360000003 70.69500000000001, 348.27732360000005 57.555000000000014, 348.27732360000005 57.555000000000014, 361.41732360000003 42.75000000000001, 361.41732360000003 42.75000000000001, 350.7973236 0, 350.79732359999997 0, 317.25 10.62, 317.25 10.62, 302.5123236 15.749999999999998, 302.5123236 15.749999999999998, 308.7223236 24.93, 308.7223236 24.93, 302.5123236 34.11, 302.5123236 34.11, 292.07232359999995 24.93, 292.07232359999995 24.93, 285.86232359999997 15.749999999999998, 285.86232359999997 15.749999999999998, 292.07232359999995 10.62, 292.07232359999995 10.62, 275.9173236 0, 275.9173236 0, 247.5 10.62, 247.5 10.62, 221.9173236 0, 221.9173236 0, 193.5 10.62, 193.5 10.62, 167.9173236 0, 167.9173236 0, 139.5 10.62, 139.5 10.62, 113.91732360000002 0, 113.91732360000002 0, 85.50000000000001 10.62, 85.50000000000001 10.62, 70.76232360000002 15.749999999999998, 70.76232360000002 15.749999999999998, 76.97232360000001 24.93, 76.97232360000001 24.93, 70.76232360000002 34.11, 70.76232360000002 34.11, 60.32232360000002 24.93, 60.32232360000002 24.93, 54.11232360000002 15.749999999999998, 54.11232360000002 15.749999999999998, 60.32232360000002 10.62, 60.32232360000002 10.62, 44.16732360000001 0, 44.16732360000001 "/> 
</g></svg>